<svg xmlns="http://www.w3.org/2000/svg" width="24" height="24" viewBox="0 0 24 24" context="list-view" aria-hidden="true" focusable="false"><path d="M7.94 5.97a.94.94 0 0 0-.57 1.69l4.25 3.18c.23.17.53.17.76 0l4.24-3.18a.94.94 0 0 0-.56-1.69zM7 9.22v4.06c0 .69.56 1.25 1.25 1.25h7.5c.69 0 1.25-.56 1.25-1.25V9.22l-4.25 3.19c-.45.33-1.05.33-1.5 0zm-2.5 3.81c-1.1 0-2 .91-2 2v1c0 1.1.91 2 2 2h15c1.1 0 2-.91 2-2v-1c0-1.1-.91-2-2-2h-1v1.5h1c.3 0 .5.2.5.5v1c0 .3-.2.5-.5.5h-15c-.3 0-.5-.2-.5-.5v-1c0-.3.2-.5.5-.5h1v-1.5z"/></svg>
