<svg xmlns="http://www.w3.org/2000/svg" width="24" height="24" viewBox="0 0 24 24" context="list-view" aria-hidden="true" focusable="false"><path d="M13.76 5.51a.25.25 0 0 0-.25.24v.58c0 .14.11.25.25.24h.27a.74.74 0 0 1 .41.1c.1.07.15.12.17.18a7.42 7.42 0 0 1 .05.78v5.2l-.01.54-.03.21c-.05.12-.1.18-.14.2h-.01c-.1.07-.24.1-.44.1h-.27a.25.25 0 0 0-.25.25v.62c0 .13.11.24.25.24h3.03c.14 0 .25-.11.25-.24v-.62a.25.25 0 0 0-.25-.24h-.27a.82.82 0 0 1-.41-.09.46.46 0 0 1-.18-.2s-.03-.09-.04-.22a7.48 7.48 0 0 1-.01-.54V7.63l.01-.53.04-.22c.04-.12.1-.17.14-.2h.01c.1-.06.24-.1.44-.1h.27c.14 0 .25-.11.25-.25v-.58a.25.25 0 0 0-.25-.24zM4.5 13.5a2 2 0 0 0-2 2v1c0 1.1.91 2 2 2h15c1.1 0 2-.91 2-2v-1c0-1.1-.91-2-2-2h-1V15h1c.3 0 .5.2.5.5v1c0 .3-.2.5-.5.5h-15c-.3 0-.5-.2-.5-.5v-1c0-.3.2-.5.5-.5h1v-1.5zm3.25 0a.75.75 0 1 0 0 1.5h3.5a.75.75 0 1 0 0-1.5z"/></svg>
