<svg xmlns="http://www.w3.org/2000/svg" width="24" height="24" viewBox="0 0 24 24" context="list-view" aria-hidden="true" focusable="false"><path d="M12 5.24c-.89 0-1.78.12-2.58.35-.78.23-2.28 1.01-2.74 1.42-.36.33-.38.37-.42.85-.04.62.02.87.25 1.09.15.14.29.16.92.16.5 0 .8-.04.9-.11.07-.06.27-.42.43-.8.16-.38.38-.77.49-.87.75-.68 4.82-.65 5.54.04.12.12.33.5.45.82.33.87.41.92 1.32.92 1.06 0 1.25-.2 1.17-1.25-.03-.48-.05-.52-.41-.85-.46-.4-1.97-1.2-2.74-1.42A9.3 9.3 0 0 0 12 5.24Zm.05 2.88a8.7 8.7 0 0 0-1.96.12c-.4.17-.52.33-1.75 2.47C6.98 13.08 7 13.07 7 13.81c0 .73.17 1.11.58 1.32.44.23 8.44.22 8.86 0 .46-.25.6-.6.57-1.42-.03-.7-.03-.7-1.09-2.55-1.37-2.4-1.59-2.71-1.94-2.89a8.18 8.18 0 0 0-1.92-.15Zm-.02 1.76c.7.02 1.36.46 1.52 1.2.18.82-.13 1.48-.85 1.83-1.62.8-3.11-1.28-1.84-2.56a1.6 1.6 0 0 1 1.17-.47zM4.5 13.76a2 2 0 0 0-2 2v1c0 1.1.91 2 2 2h15c1.1 0 2-.91 2-2v-1c0-1.1-.91-2-2-2h-1v1.5h1c.3 0 .5.2.5.5v1c0 .3-.2.5-.5.5h-15c-.3 0-.5-.2-.5-.5v-1c0-.3.2-.5.5-.5h1v-1.5z"/></svg>
