<svg xmlns="http://www.w3.org/2000/svg" width="24" height="24" viewBox="0 0 24 24" context="list-view" aria-hidden="true" focusable="false"><path d="M8.86 7.72a.13.13 0 0 0-.06.01l-1.72.8A.13.13 0 0 0 7 8.7l.07.12a.13.13 0 0 0 .17.07c.16-.07.28-.1.37-.1.05 0 .09 0 .12.03.04.03.06.05.07.08l.01.1.01.26v2.42c0 .3-.02.5-.04.52a.21.21 0 0 1-.1.12.93.93 0 0 1-.37.05H7.2a.13.13 0 0 0-.14.14v.12a.13.13 0 0 0 .14.14h2.46a.13.13 0 0 0 .13-.14v-.12a.13.13 0 0 0-.13-.14h-.1a.67.67 0 0 1-.32-.05.21.21 0 0 1-.1-.12 2.75 2.75 0 0 1-.04-.52V7.86a.13.13 0 0 0-.13-.14Zm3.04 0c-.36 0-.69.12-.96.35-.28.23-.48.59-.61 1.05a.13.13 0 0 0 .08.16l.13.04a.13.13 0 0 0 .16-.06c.18-.32.4-.46.71-.46.18 0 .33.06.45.2.13.13.2.3.2.5 0 .32-.1.63-.27.96-.16.33-.67 1-1.52 2.01a.13.13 0 0 0-.03.09v.07a.13.13 0 0 0 .13.14h2.76a.13.13 0 0 0 .13-.11l.26-1.36a.13.13 0 0 0-.13-.15h-.12a.13.13 0 0 0-.12.07c-.07.15-.14.25-.17.28a.27.27 0 0 1-.12.07c-.04 0-.2.03-.45.03h-.73a8.9 8.9 0 0 0 1.36-1.6c.18-.33.27-.66.27-1 0-.2-.07-.4-.19-.6a1.33 1.33 0 0 0-.5-.5 1.43 1.43 0 0 0-.72-.19Zm3.63 0c-.35 0-.67.1-.95.32-.28.2-.5.52-.68.92a.13.13 0 0 0 .08.18l.13.04a.13.13 0 0 0 .15-.05c.21-.32.44-.45.71-.45.18 0 .31.05.43.17a.5.5 0 0 1 .17.4c0 .1-.03.22-.1.34a.7.7 0 0 1-.21.25c-.08.05-.26.12-.51.2a.13.13 0 0 0-.1.12v.13a.13.13 0 0 0 .1.12c.4.1.7.27.9.51.2.25.3.5.3.79a.6.6 0 0 1-.15.42c-.1.11-.2.16-.34.16-.15 0-.33-.07-.54-.24l-.27-.22c-.07-.05-.1-.08-.15-.1a.63.63 0 0 0-.27-.06.5.5 0 0 0-.35.15.5.5 0 0 0-.16.36c0 .19.1.35.25.46.22.16.54.23.95.23a2.1 2.1 0 0 0 1.5-.55c.38-.37.58-.82.58-1.34 0-.32-.08-.59-.24-.8-.12-.17-.32-.3-.52-.42a1.05 1.05 0 0 0 .54-.91c0-.3-.13-.58-.36-.8a1.26 1.26 0 0 0-.9-.33ZM4.5 11.28a2 2 0 0 0-2 2v1c0 1.1.91 2 2 2h15c1.1 0 2-.91 2-2v-1c0-1.1-.91-2-2-2h-1v1.5h1c.3 0 .5.2.5.5v1c0 .3-.2.5-.5.5h-15c-.3 0-.5-.2-.5-.5v-1c0-.3.2-.5.5-.5h1v-1.5z"/></svg>
