<svg xmlns="http://www.w3.org/2000/svg" width="24" height="24" viewBox="0 0 24 24" context="list-view" aria-hidden="true" focusable="false"><path d="M12 5.25c-.14 0-.32.06-.54.27-.22.21-.45.54-.66 1-.22.52-.4 1.14-.52 1.85h3.44a7.73 7.73 0 0 0-.52-1.84c-.2-.47-.44-.8-.66-1.01-.22-.2-.4-.27-.54-.27Zm-1.28.16a5.01 5.01 0 0 0-3.36 2.96h2.28c.2-1.24.58-2.29 1.08-2.96Zm2.56 0c.5.67.88 1.72 1.08 2.96h2.27a5.01 5.01 0 0 0-3.35-2.96ZM7.16 9a4.98 4.98 0 0 0 0 2.5h2.4a12.34 12.34 0 0 1 0-2.5Zm3.03 0a12.19 12.19 0 0 0 0 2.5h3.62a12.22 12.22 0 0 0 0-2.5zm4.25 0a12.34 12.34 0 0 1 0 2.5h2.4a4.98 4.98 0 0 0 0-2.5Zm-7.08 3.13a5.01 5.01 0 0 0 3.36 2.96 6.87 6.87 0 0 1-1.08-2.96Zm2.92 0c.11.7.3 1.33.52 1.84.2.47.44.8.66 1.01.22.2.4.27.54.27s.32-.06.54-.27c.22-.21.45-.55.66-1 .22-.52.4-1.14.52-1.85zm4.08 0a6.9 6.9 0 0 1-1.08 2.96 5.01 5.01 0 0 0 3.36-2.97zM4.5 13.75c-1.1 0-2 .91-2 2v1c0 1.1.91 2 2 2h15c1.1 0 2-.91 2-2v-1c0-1.1-.91-2-2-2h-1v1.5h1c.3 0 .5.2.5.5v1c0 .3-.2.5-.5.5h-15c-.3 0-.5-.2-.5-.5v-1c0-.3.2-.5.5-.5h1v-1.5z"/></svg>
