<svg xmlns="http://www.w3.org/2000/svg" width="24" height="24" viewBox="0 0 24 24" context="list-view" aria-hidden="true" focusable="false"><path d="M13.76 2.51a.24.24 0 0 0-.25.24v.58a.24.24 0 0 0 .25.24h.27c.2 0 .32.04.4.1a.24.24 0 0 0 .01 0c.1.07.15.12.17.18a7.42 7.42 0 0 1 .05.78v5.2l-.01.54-.03.21c-.05.12-.1.18-.15.2-.1.07-.24.1-.44.1h-.27a.24.24 0 0 0-.25.25v.62a.24.24 0 0 0 .25.24h3.03a.24.24 0 0 0 .25-.24v-.62a.24.24 0 0 0-.25-.24h-.27a.82.82 0 0 1-.41-.09.46.46 0 0 1-.18-.2s-.03-.09-.04-.22a7.48 7.48 0 0 1-.01-.54V4.63l.01-.53c.01-.13.04-.22.04-.22.04-.12.1-.17.14-.2a.24.24 0 0 0 .01 0c.1-.06.24-.1.44-.1h.27a.24.24 0 0 0 .25-.25v-.58a.24.24 0 0 0-.25-.24ZM4.5 7.5a2 2 0 0 0-2 2v10c0 1.1.91 2 2 2h15c1.1 0 2-.91 2-2v-10c0-1.1-.91-2-2-2h-1V9h1c.3 0 .5.2.5.5v10c0 .3-.2.5-.5.5h-15c-.3 0-.5-.2-.5-.5v-10c0-.3.2-.5.5-.5h1V7.5zm3.25 3a.75.75 0 0 0-.75.75.75.75 0 0 0 .75.75h3.5a.75.75 0 0 0 .75-.75.75.75 0 0 0-.75-.75zm0 3a.75.75 0 0 0-.75.75.75.75 0 0 0 .75.75h8.5a.75.75 0 0 0 .75-.75.75.75 0 0 0-.75-.75zm0 2.99a.75.75 0 0 0-.75.75.75.75 0 0 0 .75.75h8.5a.75.75 0 0 0 .75-.75.75.75 0 0 0-.75-.75z"/></svg>
