<svg xmlns="http://www.w3.org/2000/svg" width="24" height="24" viewBox="0 0 24 24" context="list-view" aria-hidden="true" focusable="false"><path d="M4.5 3.25c-1.09 0-2 .9-2 2v1c0 1.09.9 2 2 2h1v-1.5h-1c-.3 0-.5-.2-.5-.5v-1c0-.3.2-.5.5-.5h15c.3 0 .5.2.5.5v1c0 .3-.2.5-.5.5h-1v1.5h1c1.09 0 2-.9 2-2v-1c0-1.09-.9-2-2-2zM4 9.75v8.44c0 1.1.91 2 2 2h12a2 2 0 0 0 2-2V9.75h-1.5v8.44c0 .3-.2.5-.5.5H6c-.3 0-.5-.2-.5-.5V9.75Zm5.25 0a.75.75 0 1 0 0 1.5h5.5a.75.75 0 0 0 0-1.5zm0 3a.75.75 0 0 0 0 1.5h5.5a.75.75 0 0 0 0-1.5zm0 2.99a.75.75 0 0 0 0 1.5h5.5a.75.75 0 1 0 0-1.5z"/></svg>
